<?xml version="1.0" encoding="iso-8859-1"?>
<!-- Uploaded to: SVG Repo, www.svgrepo.com, Generator: SVG Repo Mixer Tools -->
<svg fill="#ff571b" height="800px" width="800px" version="1.1" id="Layer_1" xmlns="http://www.w3.org/2000/svg" xmlns:xlink="http://www.w3.org/1999/xlink" 
	 viewBox="0 0 512 512" xml:space="preserve">
<g>
	<g>
		<path d="M288,64h-64c-28.228,0-51.2,22.963-51.2,51.2c0,28.228,22.972,51.2,51.2,51.2h64c28.228,0,51.2-22.972,51.2-51.2
			C339.2,86.963,316.228,64,288,64z M288,140.8h-64c-14.14,0-25.6-11.46-25.6-25.6s11.46-25.6,25.6-25.6h64
			c14.14,0,25.6,11.46,25.6,25.6S302.14,140.8,288,140.8z"/>
	</g>
</g>
<g>
	<g>
		<path d="M409.6,171.759V128c0-70.579-57.421-128-128-128h-51.2c-70.579,0-128,57.421-128,128v44.271
			C57.515,214.153,32,271.991,32,332.8c0,68.062,31.334,131.422,85.973,173.824c4.489,3.482,10.01,5.376,15.693,5.376h244.668
			c5.683,0,11.204-1.894,15.693-5.376C448.666,464.222,480,400.862,480,332.8C480,271.573,454.494,213.547,409.6,171.759z
			 M378.334,486.4H133.666C87.501,450.569,57.6,395.273,57.6,332.8c0-59.861,27.511-113.101,70.4-149V128
			c0-56.559,45.841-102.4,102.4-102.4h51.2C338.159,25.6,384,71.441,384,128v55.305c43.034,35.908,70.4,89.515,70.4,149.495
			C454.4,395.273,424.499,450.569,378.334,486.4z"/>
	</g>
</g>
<g>
	<g>
		<path d="M149.615,221.278c-5.291-4.702-13.363-4.224-18.074,1.075C104.499,252.809,89.6,292.036,89.6,332.8
			c0,28.211,7.202,56.098,20.821,80.649c2.338,4.215,6.699,6.588,11.204,6.588c2.099,0,4.241-0.512,6.204-1.613
			c6.178-3.422,8.414-11.213,4.975-17.399c-11.52-20.753-17.604-44.339-17.604-68.224c0-34.5,12.604-67.686,35.49-93.448
			C155.375,234.061,154.906,225.98,149.615,221.278z"/>
	</g>
</g>
</svg>